<svg xmlns="http://www.w3.org/2000/svg" width="18.028" height="18.955" viewBox="0 0 18.028 18.955"><defs><style>.a{fill:#fda537;}.b{fill:#f9972d;}.c{fill:#feb644;}.d{fill:#fff;}.e{fill:#d8dce5;}.f{fill:#8d909f;}.g{fill:#ffc850;}</style></defs><path class="a" d="M15.759,186.168v1.782l-6.352,4.987a.635.635,0,0,1-.785,0L2.27,187.95v-1.782H0v11.406a.657.657,0,0,0,.657.657H17.372a.657.657,0,0,0,.657-.657V186.168Zm0,0" transform="translate(0 -179.276)"/><path class="b" d="M1.112,197.574V186.168H0v11.406a.657.657,0,0,0,.657.657H1.769a.657.657,0,0,1-.657-.657Zm0,0" transform="translate(0 -179.276)"/><path class="a" d="M425.648,139.813v-1.782l2.27,1.782Zm0,0" transform="translate(-409.89 -132.921)"/><path class="a" d="M2.27,139.813H0l2.27-1.782Zm0,0" transform="translate(0 -132.921)"/><path class="b" d="M2.27,138.031,0,139.813H1.112L2.27,138.9Zm0,0" transform="translate(0 -132.921)"/><path class="c" d="M2.27,186.168H0l2.27,1.782Zm0,0" transform="translate(0 -179.276)"/><path class="a" d="M1.112,186.168H0l1.112.873Zm0,0" transform="translate(0 -179.276)"/><path class="c" d="M425.648,186.168v1.782l2.27-1.782Zm0,0" transform="translate(-409.89 -179.276)"/><path class="c" d="M9.407,341.277a.636.636,0,0,1-.785,0l-1.358-1.066L0,345.914a.657.657,0,0,0,.657.657H17.371a.657.657,0,0,0,.657-.657l-7.264-5.7Zm0,0" transform="translate(0 -327.616)"/><path class="a" d="M1.769,472.206a.657.657,0,0,1-.657-.657v-.873L0,471.549a.657.657,0,0,0,.657.657Zm0,0" transform="translate(0 -453.25)"/><path class="d" d="M66.1,13.661a.641.641,0,0,0,.792,0L73.3,8.63V.5a.5.5,0,0,0-.5-.5H60.189a.5.5,0,0,0-.5.5V8.63Zm0,0" transform="translate(-57.478 -0.001)"/><path class="e" d="M60.824.457A.569.569,0,0,1,61.054,0h-.865a.5.5,0,0,0-.5.5V8.629l1.137.893V.457Zm0,0" transform="translate(-57.478)"/><path class="f" d="M236.925,58.445a.284.284,0,0,1-.284-.284V57.01a.284.284,0,0,1,.568,0v1.15A.284.284,0,0,1,236.925,58.445Zm0,0" transform="translate(-227.879 -54.626)"/><path class="g" d="M167.8,87.365v-.233a1.836,1.836,0,0,0-1.785-1.846A1.816,1.816,0,0,0,164.17,87.1v.262a4,4,0,0,1-1.163,2.821h5.959a4,4,0,0,1-1.163-2.821Zm0,0" transform="translate(-156.973 -82.129)"/><path class="c" d="M165.307,87.365V87.1a1.817,1.817,0,0,1,1.246-1.725,1.782,1.782,0,0,0-.536-.092A1.816,1.816,0,0,0,164.17,87.1v.262a4,4,0,0,1-1.163,2.821h1.137a4,4,0,0,0,1.163-2.821Zm0,0" transform="translate(-156.973 -82.129)"/><path class="g" d="M214.281,248.313a1.112,1.112,0,0,0,2.224,0Zm0,0" transform="translate(-206.348 -239.12)"/><path class="c" d="M215.393,248.313h-1.112a1.112,1.112,0,0,0,1.668.941A1.112,1.112,0,0,1,215.393,248.313Zm0,0" transform="translate(-206.348 -239.12)"/><path class="c" d="M155.085,215.6h-6.1a.468.468,0,0,0-.466.466v.355a.468.468,0,0,0,.466.466h6.1a.468.468,0,0,0,.466-.466v-.355A.468.468,0,0,0,155.085,215.6Zm0,0" transform="translate(-143.022 -207.616)"/><path class="b" d="M155.085,221.828h-6.1a.467.467,0,0,1-.4-.222.462.462,0,0,0-.07.244v.355a.468.468,0,0,0,.466.466h6.1a.468.468,0,0,0,.466-.466v-.355a.462.462,0,0,0-.07-.244A.467.467,0,0,1,155.085,221.828Zm0,0" transform="translate(-143.022 -213.401)"/></svg>